<svg xmlns="http://www.w3.org/2000/svg" role="img" viewBox="-22 0 222 64">
  <title>Gimme Job Forward Subtle Comet Lean</title>
  <defs>
    <linearGradient gradientUnits="userSpaceOnUse" id="gj-gimme-subtle" x1="-8" x2="188" y1="27" y2="38">
      <stop offset="0%" stop-color="var(--gj-gimme-a, currentColor)" />
      <stop offset="58%" stop-color="var(--gj-gimme-b, #4f46e5)" />
      <stop offset="100%" stop-color="var(--gj-gimme-c, #7c3aed)" />
    </linearGradient>
    <linearGradient gradientUnits="userSpaceOnUse" id="gj-j-tail-core" x1="126.5" x2="15" y1="50" y2="50">
      <stop offset="0%" stop-color="var(--gj-accent, #8b5cf6)" stop-opacity="1" />
      <stop offset="36%" stop-color="#a78bfa" stop-opacity="0.94" />
      <stop offset="68%" stop-color="#e874aa" stop-opacity="0.46" />
      <stop offset="100%" stop-color="#e874aa" stop-opacity="0" />
    </linearGradient>
    <linearGradient gradientUnits="userSpaceOnUse" id="gj-j-tail-glow" x1="126.5" x2="7" y1="50" y2="50">
      <stop offset="0%" stop-color="var(--gj-accent, #8b5cf6)" stop-opacity="0.62" />
      <stop offset="44%" stop-color="#a78bfa" stop-opacity="0.38" />
      <stop offset="78%" stop-color="#e874aa" stop-opacity="0.16" />
      <stop offset="100%" stop-color="#e874aa" stop-opacity="0" />
    </linearGradient>
    <linearGradient gradientUnits="userSpaceOnUse" id="gj-j-dark" x1="142" x2="18" y1="13" y2="51">
      <stop offset="0%" stop-color="var(--gj-accent, #8b5cf6)" />
      <stop offset="78%" stop-color="#e874aa" stop-opacity="1" />
      <stop offset="100%" stop-color="#e874aa" stop-opacity="0.85" />
    </linearGradient>
    <linearGradient gradientUnits="userSpaceOnUse" id="gj-j-light" x1="142" x2="18" y1="13" y2="51">
      <stop offset="0%" stop-color="#7c3aed" />
      <stop offset="78%" stop-color="#db2777" stop-opacity="1" />
      <stop offset="100%" stop-color="#db2777" stop-opacity="0.85" />
    </linearGradient>
    <linearGradient gradientUnits="userSpaceOnUse" id="gj-g-desc-dark" x1="20" x2="2" y1="51" y2="44">
      <stop offset="0%" stop-color="#e874aa" stop-opacity="0.55" />
      <stop offset="22%" stop-color="#0f172a" stop-opacity="1" />
    </linearGradient>
    <linearGradient gradientUnits="userSpaceOnUse" id="gj-g-desc-light" x1="20" x2="2" y1="51" y2="44">
      <stop offset="0%" stop-color="#db2777" stop-opacity="0.55" />
      <stop offset="22%" stop-color="#0f172a" stop-opacity="1" />
    </linearGradient>
    <filter id="gj-comet-blur" x="-30" y="34" width="170" height="34" filterUnits="userSpaceOnUse">
      <feGaussianBlur stdDeviation="2.8" />
    </filter>
  </defs>

  <g transform="translate(-7 0) skewX(-8)">
    <!-- "i" dot and stem -->
    <circle cx="26" cy="13" fill="url(#gj-gimme-subtle)" r="3.25" />
    <path d="M26 22.65 L26 39.35" fill="none" stroke="url(#gj-gimme-subtle)" stroke-linecap="round" stroke-width="6.5" />

    <!-- "o" of "job" -->
    <circle cx="157" cy="31" fill="none" r="8.35" stroke="var(--gj-accent, #8b5cf6)" stroke-width="6.5" />

    <!-- "mm" strokes -->
    <g fill="none" stroke="url(#gj-gimme-subtle)" stroke-linecap="round" stroke-linejoin="round" stroke-width="6.5">
      <path d="M38 39.35 L38 29.4 C38 26.1 40 22.65 43 22.65 C47 22.65 50 26.1 50 29.4 L50 39.35" />
      <path d="M50 39.35 L50 29.4 C50 26.1 53 22.65 57 22.65 C60 22.65 62 26.1 62 29.4 L62 39.35" />
      <path d="M74 39.35 L74 29.4 C74 26.1 76 22.65 79 22.65 C83 22.65 86 26.1 86 29.4 L86 39.35" />
      <path d="M86 39.35 L86 29.4 C86 26.1 89 22.65 93 22.65 C96 22.65 98 26.1 98 29.4 L98 39.35" />
    </g>

    <!-- "e" -->
    <path d="M125.45 29.65 L125.45 28.7 C125.45 26.2 121.7 22.65 117.4 22.65 C112.65 22.65 108.76 26.25 108.76 31 C108.76 35.75 112.65 39.35 117.4 39.35 L124.5 39.35"
          fill="none" stroke="url(#gj-gimme-subtle)" stroke-linecap="round" stroke-linejoin="round" stroke-width="6.5" />
    <path d="M112.52 30.9h13.50" fill="none" stroke="url(#gj-gimme-subtle)" stroke-linecap="round" stroke-width="4" />

    <!-- "b" of "job" -->
    <g transform="matrix(-1 0 0 -1 190.5 61)">
      <circle cx="6" cy="30" fill="none" r="8.35" stroke="var(--gj-accent, #8b5cf6)" stroke-width="6.5" />
      <path d="M14.35 30 L14.35 48.4" fill="none" stroke="var(--gj-accent, #8b5cf6)" stroke-linecap="round" stroke-linejoin="round" stroke-width="6.5" />
    </g>

    <!-- Custom "g" — circle body + descender -->
    <path d="M6 22.65 C10.61 22.65 14.35 26.39 14.35 31 C14.35 35.61 10.61 39.35 6 39.35 C1.39 39.35 -2.35 35.61 -2.35 31 C-2.35 26.39 1.39 22.65 6 22.65 Z"
          fill="none" stroke="url(#gj-gimme-subtle)" stroke-linecap="round" stroke-linejoin="round" stroke-width="6.35" />
    <path d="M14.35 31 L14.35 42 C14.35 47.5 10.5 51 5 51 L-2 51"
          fill="none" stroke="url(#gj-gimme-subtle)" stroke-linecap="round" stroke-linejoin="round" stroke-width="6.35" />

    <!-- Custom "j" — dot, stem, tail -->
    <circle cx="137" cy="13" fill="var(--gj-accent, #8b5cf6)" r="3.5" />
    <path d="M137 22.65 L137 40 C137 46 131.6 50.5 125 50.5"
          fill="none" stroke="var(--gj-accent, #8b5cf6)" stroke-linecap="round" stroke-linejoin="round" stroke-width="7" />
    <path d="M126.5 50.5 L7 50.5" fill="none" filter="url(#gj-comet-blur)" stroke="url(#gj-j-tail-glow)" stroke-linecap="round" stroke-width="13" />
    <path d="M126.5 50.5 L15 50.5" fill="none" stroke="url(#gj-j-tail-core)" stroke-linecap="round" stroke-width="7" />
    <g fill="none" stroke-linecap="round">
      <circle cx="118" cy="48.3" fill="var(--gj-accent, #8b5cf6)" opacity="0.32" r="1.05" />
      <circle cx="112" cy="53.2" fill="#7c3aed" opacity="0.22" r="0.78" />
      <circle cx="105" cy="49.05" fill="#8b5cf6" opacity="0.24" r="0.8" />
      <circle cx="99" cy="52.6" fill="#9333ea" opacity="0.2" r="0.66" />
      <circle cx="92" cy="47.9" fill="#a21caf" opacity="0.18" r="0.68" />
      <circle cx="86" cy="51.95" fill="#9333ea" opacity="0.16" r="0.58" />
      <circle cx="79" cy="48.8" fill="#be185d" opacity="0.14" r="0.54" />
      <circle cx="73" cy="53.45" fill="#db2777" opacity="0.12" r="0.5" />
      <circle cx="66" cy="49.55" fill="#be185d" opacity="0.1" r="0.46" />
      <circle cx="59" cy="52.7" fill="#9d174d" opacity="0.085" r="0.42" />
      <circle cx="52" cy="48.6" fill="#a21caf" opacity="0.075" r="0.38" />
      <circle cx="45" cy="51.85" fill="#be185d" opacity="0.06" r="0.34" />
      <circle cx="37" cy="49.25" fill="#7c3aed" opacity="0.05" r="0.3" />
      <circle cx="29" cy="52.9" fill="#9d174d" opacity="0.04" r="0.26" />
      <circle cx="21" cy="50.15" fill="#db2777" opacity="0.04" r="0.26" />
    </g>
  </g>
</svg>
