<svg xmlns="http://www.w3.org/2000/svg" role="img" viewBox="-20 0 220 64">
  <title>Gimme Job Forward Lean</title>
  <defs>
    <linearGradient gradientUnits="userSpaceOnUse" id="gj-j-tail" x1="126.5" x2="15" y1="50" y2="50">
      <stop offset="0%" stop-color="var(--gj-accent, #8b5cf6)" stop-opacity="1" />
      <stop offset="78%" stop-color="var(--gj-accent, #8b5cf6)" stop-opacity="1" />
      <stop offset="100%" stop-color="var(--gj-accent, #8b5cf6)" stop-opacity="0" />
    </linearGradient>
    <linearGradient gradientUnits="userSpaceOnUse" id="gj-j-dark" x1="142" x2="18" y1="13" y2="51">
      <stop offset="0%" stop-color="var(--gj-accent, #8b5cf6)" />
      <stop offset="78%" stop-color="#f472b6" stop-opacity="1" />
      <stop offset="100%" stop-color="#f472b6" stop-opacity="0.85" />
    </linearGradient>
    <linearGradient gradientUnits="userSpaceOnUse" id="gj-j-light" x1="142" x2="18" y1="13" y2="51">
      <stop offset="0%" stop-color="#7c3aed" />
      <stop offset="78%" stop-color="#db2777" stop-opacity="1" />
      <stop offset="100%" stop-color="#db2777" stop-opacity="0.85" />
    </linearGradient>
    <linearGradient gradientUnits="userSpaceOnUse" id="gj-g-desc-dark" x1="20" x2="2" y1="51" y2="44">
      <stop offset="0%" stop-color="#f472b6" stop-opacity="0.55" />
      <stop offset="22%" stop-color="#0f172a" stop-opacity="1" />
    </linearGradient>
    <linearGradient gradientUnits="userSpaceOnUse" id="gj-g-desc-light" x1="20" x2="2" y1="51" y2="44">
      <stop offset="0%" stop-color="#db2777" stop-opacity="0.55" />
      <stop offset="22%" stop-color="#0f172a" stop-opacity="1" />
    </linearGradient>
  </defs>

  <g transform="translate(-7 0) skewX(-6)">
    <!-- "i" dot and stem -->
    <circle cx="26" cy="13" fill="currentColor" r="3.25" />
    <path d="M26 22.65 L26 39.35" fill="none" stroke="currentColor" stroke-linecap="round" stroke-width="6.5" />

    <!-- "o" of "job" -->
    <circle cx="157" cy="31" fill="none" r="8.35" stroke="var(--gj-accent, #8b5cf6)" stroke-width="6.5" />

    <!-- "mm" strokes -->
    <g fill="none" stroke="currentColor" stroke-linecap="round" stroke-linejoin="round" stroke-width="6.5">
      <path d="M38 39.35 L38 29.4 C38 26.1 40 22.65 43 22.65 C47 22.65 50 26.1 50 29.4 L50 39.35" />
      <path d="M50 39.35 L50 29.4 C50 26.1 53 22.65 57 22.65 C60 22.65 62 26.1 62 29.4 L62 39.35" />
      <path d="M74 39.35 L74 29.4 C74 26.1 76 22.65 79 22.65 C83 22.65 86 26.1 86 29.4 L86 39.35" />
      <path d="M86 39.35 L86 29.4 C86 26.1 89 22.65 93 22.65 C96 22.65 98 26.1 98 29.4 L98 39.35" />
    </g>

    <!-- "e" -->
    <path d="M125.45 29.65 L125.45 28.7 C125.45 26.2 121.7 22.65 117.4 22.65 C112.65 22.65 108.76 26.25 108.76 31 C108.76 35.75 112.65 39.35 117.4 39.35 L124.5 39.35"
          fill="none" stroke="currentColor" stroke-linecap="round" stroke-linejoin="round" stroke-width="6.5" />
    <path d="M112.52 30.9h13.50" fill="none" stroke="currentColor" stroke-linecap="round" stroke-width="4" />

    <!-- "b" of "job" -->
    <g transform="matrix(-1 0 0 -1 190.5 61)">
      <circle cx="6" cy="30" fill="none" r="8.35" stroke="var(--gj-accent, #8b5cf6)" stroke-width="6.5" />
      <path d="M14.35 30 L14.35 48.4" fill="none" stroke="var(--gj-accent, #8b5cf6)" stroke-linecap="round" stroke-linejoin="round" stroke-width="6.5" />
    </g>

    <!-- Custom "g" — circle body + descender -->
    <path d="M6 22.65 C10.61 22.65 14.35 26.39 14.35 31 C14.35 35.61 10.61 39.35 6 39.35 C1.39 39.35 -2.35 35.61 -2.35 31 C-2.35 26.39 1.39 22.65 6 22.65 Z"
          fill="none" stroke="currentColor" stroke-linecap="round" stroke-linejoin="round" stroke-width="6.35" />
    <path d="M14.35 31 L14.35 42 C14.35 47.5 10.5 51 5 51 L-2 51"
          fill="none" stroke="currentColor" stroke-linecap="round" stroke-linejoin="round" stroke-width="6.35" />

    <!-- Custom "j" — dot, stem, tail -->
    <circle cx="137" cy="13" fill="var(--gj-accent, #8b5cf6)" r="3.5" />
    <path d="M137 22.65 L137 40 C137 46 131.6 50.5 125 50.5"
          fill="none" stroke="var(--gj-accent, #8b5cf6)" stroke-linecap="round" stroke-linejoin="round" stroke-width="7" />
    <path d="M126.5 50.5 L15 50.5" fill="none" stroke="url(#gj-j-tail)" stroke-linecap="butt" stroke-width="7" />
  </g>
</svg>
