<?xml version="1.0" encoding="UTF-8"?>
<svg xmlns="http://www.w3.org/2000/svg" viewBox="0 0 512 512" width="512" height="512">
  <defs>
    <linearGradient id="surface" x1="70" x2="430" y1="42" y2="470" gradientUnits="userSpaceOnUse">
      <stop offset="0%" stop-color="#071126"/>
      <stop offset="58%" stop-color="#040817"/>
      <stop offset="100%" stop-color="#09051b"/>
    </linearGradient>
    <linearGradient id="j-full" x1="430" x2="116" y1="110" y2="366" gradientUnits="userSpaceOnUse">
      <stop offset="0%" stop-color="#8b5cf6" stop-opacity="1"/>
      <stop offset="58%" stop-color="#a78bfa" stop-opacity="1"/>
      <stop offset="84%" stop-color="#a78bfa" stop-opacity="0.7"/>
      <stop offset="100%" stop-color="#e874aa" stop-opacity="0"/>
    </linearGradient>
    <filter id="shadow" x="-24%" y="-24%" width="148%" height="148%">
      <feDropShadow dx="0" dy="18" stdDeviation="18" flood-color="#020617" flood-opacity="0.46"/>
    </filter>
  </defs>
  <rect width="512" height="512" rx="104" fill="url(#surface)"/>
  <path d="M48 423C123 458 243 468 346 429C426 398 467 331 477 256C485 194 463 137 426 93" fill="none" stroke="#8b5cf6" stroke-opacity="0.08" stroke-width="28" stroke-linecap="round"/>
  <g filter="url(#shadow)" transform="translate(-18 50) skewX(-10) scale(1.14)">
    <circle cx="394" cy="74" r="25" fill="#8b5cf6"/>
    <path d="M394 138 L394 270 C394 320 348 356 293 356 L132 356" fill="none" stroke="url(#j-full)" stroke-width="50" stroke-linecap="round" stroke-linejoin="round"/>
  </g>
  <g filter="url(#shadow)" transform="translate(128 56) skewX(-10) scale(6.7)" fill="none" stroke="#e874aa" stroke-linecap="round" stroke-linejoin="round" stroke-width="6.35">
    <path d="M6 22.65 C10.61 22.65 14.35 26.39 14.35 31 C14.35 35.61 10.61 39.35 6 39.35 C1.39 39.35 -2.35 35.61 -2.35 31 C-2.35 26.39 1.39 22.65 6 22.65 Z"/>
    <path d="M14.35 31 L14.35 42 C14.35 47.5 10.5 51 5 51 L-2 51"/>
  </g>
</svg>
